<svg preserveAspectRatio="none" width="100%" height="100%" overflow="visible" style="display: block;" viewBox="0 0 59.5841 13.1701" fill="none" xmlns="http://www.w3.org/2000/svg">
<path id="Vector 140" d="M1 5.37373C1.61547 5.37373 2.80438 5.2893 7.0365 4.46103C10.414 3.80002 16.2191 2.31652 19.5914 1.55152C22.9638 0.786534 23.7097 0.699681 22.3434 2.04669C20.977 3.3937 17.4758 6.17721 15.7926 7.58855C14.1094 8.99988 14.3503 8.95469 16.2816 8.25499C18.2129 7.55528 21.8272 6.20244 24.9645 5.22027C28.1018 4.23809 30.6526 3.66759 31.7512 3.44148C32.8498 3.21537 32.4191 3.35095 29.1367 4.85156C25.8543 6.35217 19.7333 9.21372 16.6653 10.6925C13.5973 12.1712 13.7677 12.1805 14.0121 12.1684C14.2565 12.1563 14.5697 12.1226 20.0935 10.6138C25.6174 9.10504 36.3423 6.12225 41.7262 4.58555C47.1102 3.04885 46.8283 3.04863 44.5036 4.03158C42.179 5.01452 37.8202 6.98063 35.6895 7.98951C33.5588 8.99839 33.7883 8.99046 38.1023 8.05633C42.4163 7.1222 50.8078 5.26212 55.0247 4.34269C59.2416 3.42326 59.0295 3.50086 57.8393 4.29739C54.4563 6.56145 52.4429 8.18384 52.8044 8.17628C52.983 8.15087 53.1516 8.08165 53.6703 7.94294C54.1891 7.80422 55.0527 7.59811 56.1711 7.29824" stroke="var(--stroke-0, #DE4C13)" stroke-width="2" stroke-linecap="round"/>
</svg>
