<svg width="99" height="9" viewBox="0 0 99 9" fill="none" xmlns="http://www.w3.org/2000/svg">
<path d="M97.3369 4.49537e-05C97.889 -0.00513604 98.3412 0.438177 98.3467 0.990279C98.3521 1.5424 97.9085 1.99444 97.3564 2.00005C82.8169 2.14313 68.7711 2.42627 56.5147 2.74126C56.5651 2.79671 56.6144 2.85905 56.6572 2.93071C56.7638 3.10915 56.8301 3.33109 56.8154 3.57622C56.8012 3.81237 56.7164 4.00349 56.6289 4.13872C56.4703 4.38384 56.2474 4.53684 56.1035 4.62407C55.939 4.72384 55.7487 4.81211 55.5498 4.89262C55.2144 5.02831 54.7551 5.13843 54.2627 5.23442C53.7519 5.33399 53.137 5.4312 52.4561 5.52837C51.0963 5.72237 49.416 5.92248 47.6826 6.13969C47.0966 6.21313 46.5057 6.28967 45.918 6.36723C49.7096 6.47173 54.3953 6.5524 58.8857 6.60942C65.1114 6.6206 69.992 6.63555 72.0234 6.6602C72.9814 6.67183 73.6788 6.68178 74.1436 6.69047C74.3753 6.69481 74.5522 6.69946 74.6758 6.70317C74.7369 6.70501 74.7896 6.70602 74.8311 6.70805C74.8513 6.70904 74.8745 6.71117 74.8975 6.71294C74.9088 6.71381 74.9255 6.71473 74.9443 6.71684C74.956 6.71815 74.9997 6.72285 75.0527 6.73442C75.0859 6.74221 75.1777 6.77091 75.2363 6.79399C75.3711 6.86451 75.7535 7.30185 75.8418 7.72661C75.7433 8.14578 75.3556 8.57058 75.2217 8.63774C75.163 8.65976 75.071 8.68618 75.0381 8.6934C74.9849 8.70419 74.941 8.7089 74.9297 8.71001C74.9111 8.71182 74.8949 8.71321 74.8838 8.71391C74.8434 8.71645 74.7951 8.71781 74.752 8.71879C74.658 8.72093 74.5184 8.72256 74.3418 8.72368C73.9862 8.72593 73.4576 8.72584 72.7881 8.72465C70.109 8.71989 65.1308 8.68719 59.7588 8.62212C59.4598 8.61849 59.1596 8.61324 58.8584 8.60942C46.0184 8.58641 27.456 8.58501 16.3701 8.58501H2.68979e-06C-2.45368e-06 8.58501 1.07118e-06 7.58489 2.68979e-06 6.58501H16.3701C21.9181 6.58501 29.345 6.587 36.9912 6.58989C37.0694 6.31545 37.2387 6.15017 37.3252 6.07817C37.5001 5.93259 37.6903 5.8729 37.7481 5.85454L38.2022 5.71782C40.56 5.04879 44.1955 4.56108 47.4336 4.15532C48.1758 4.06231 48.8998 3.97282 49.5889 3.88676C47.701 3.87994 45.4827 3.91016 43.0957 3.96391C34.7583 4.15164 24.3981 4.60751 19.4707 4.55376C17.018 4.527 15.2226 4.49527 14.1387 4.45415C13.6158 4.43431 13.2031 4.41078 12.9678 4.37602C12.9146 4.36817 12.8092 4.35129 12.7002 4.3145C12.6629 4.30192 12.5099 4.25137 12.3584 4.12504C12.2769 4.05709 12.1324 3.91536 12.0508 3.68266C11.9573 3.41586 11.9857 3.14053 12.0928 2.91606C12.1851 2.72255 12.3158 2.60629 12.3857 2.5518C12.4618 2.49262 12.5317 2.45615 12.5742 2.43559C12.6585 2.39489 12.733 2.37212 12.7715 2.36137C12.8544 2.33822 12.9381 2.32338 13.001 2.31352C13.4707 2.23994 14.6989 2.16164 16.6328 2.0684C18.5998 1.97357 21.3667 1.86045 24.9736 1.72563C39.4043 1.18625 67.3171 0.295469 97.3369 4.49537e-05Z" fill="black"/>
</svg>
