<svg width="106" height="9" viewBox="0 0 106 9" fill="none" xmlns="http://www.w3.org/2000/svg">
<path d="M22.5107 2.82525e-08C32.4519 2.82525e-08 47.1563 -0.000237949 59.6094 0.0429688C65.8356 0.0645714 71.5022 0.0968599 75.7295 0.145508C77.8423 0.169823 79.5994 0.19819 80.8887 0.231445C81.5327 0.248058 82.0651 0.266625 82.4688 0.286133C82.8429 0.304222 83.1777 0.326031 83.374 0.362305C83.4021 0.367475 83.555 0.393083 83.7109 0.473633C83.7593 0.498647 83.8421 0.545829 83.9287 0.624023C84.0126 0.699802 84.1496 0.849436 84.2197 1.08496C84.3993 1.68853 83.9879 2.0762 83.875 2.16504C83.7431 2.26863 83.6148 2.31555 83.5771 2.3291C83.521 2.34925 83.4713 2.36235 83.4385 2.37012C83.3717 2.38589 83.3047 2.39645 83.25 2.4043C83.0361 2.43497 82.6928 2.46187 82.2676 2.48828C81.3968 2.54237 80.0362 2.60051 78.2988 2.66211C76.1054 2.73987 73.2954 2.82202 70.0801 2.91016C76.1451 2.84806 81.7702 2.78788 86.418 2.74023C95.8378 2.64367 101.002 2.60023 103.272 2.66504C103.832 2.68102 104.261 2.70395 104.542 2.74219C104.615 2.75218 104.696 2.76557 104.774 2.78418C104.837 2.79899 104.97 2.83357 105.108 2.91016C105.175 2.94687 105.706 3.2481 105.644 3.9082C105.616 4.19669 105.477 4.39412 105.387 4.49512C105.296 4.59711 105.204 4.66126 105.149 4.69531C104.969 4.80815 104.76 4.8647 104.666 4.88965C104.532 4.92538 104.373 4.95952 104.201 4.99316C103.855 5.06085 103.399 5.13658 102.864 5.21973C98.5785 5.88634 88.3009 7.19229 76.8271 8.53613C76.2788 8.60017 75.782 8.2076 75.7178 7.65918C75.6538 7.11088 76.0464 6.6141 76.5947 6.5498C82.1765 5.89605 87.4658 5.25142 91.915 4.68652C90.2782 4.70175 88.4574 4.71954 86.4385 4.74023C67.5773 4.93358 32.5697 5.33025 17.3838 5.25098C13.5909 5.23118 11.0052 5.1821 9.5957 5.10938C9.24304 5.09118 8.95151 5.07103 8.72754 5.04785C8.61615 5.03632 8.50952 5.02323 8.41504 5.00684C8.34303 4.99434 8.19884 4.96729 8.05664 4.90625C8.01037 4.88636 7.79421 4.79603 7.625 4.57129C7.52319 4.43606 7.42031 4.22576 7.4209 3.95801C7.42161 3.69294 7.52371 3.4879 7.61914 3.3584C7.77971 3.14069 7.98444 3.04766 8.03027 3.02637C8.10976 2.98947 8.18279 2.96577 8.23047 2.95215C8.40546 2.90219 8.63921 2.86833 8.86816 2.84082C10.7781 2.61141 17.209 2.31972 27.6787 2.00781C27.7505 2.00567 27.8224 2.00312 27.8945 2.00098C25.9877 2.00077 24.1819 2 22.5107 2H1C0.447715 2 0 1.55228 0 1C0 0.447715 0.447715 2.82525e-08 1 2.82525e-08H22.5107Z" fill="black"/>
</svg>
