<svg width="132" height="88" viewBox="0 0 132 88" fill="none" xmlns="http://www.w3.org/2000/svg">
<path d="M31.3722 70.4591C31.4607 70.6993 31.4369 70.9127 31.3009 71.0991C31.165 71.2856 30.9769 71.423 30.7366 71.5115C30.4664 71.611 30.0871 71.4607 29.5989 71.0608C29.1407 70.6497 28.6327 70.1036 28.075 69.4223C27.5174 68.741 26.9526 67.9942 26.3807 67.1817C25.7978 66.3392 25.2725 65.5607 24.8049 64.8463C24.3262 64.1018 23.9273 63.4814 23.6082 62.9851C23.3192 62.4777 23.1636 62.194 23.1415 62.1339C23.0972 62.0138 22.9211 61.7206 22.6131 61.2543C22.335 60.777 21.907 60.0309 21.3288 59.0162C20.7807 57.9904 20.0865 56.6603 19.2461 55.026C18.4248 53.3506 17.4392 51.2753 16.2893 48.8002C16.1898 48.5299 16.1077 48.168 16.0431 47.7144C15.9784 47.2608 16.1112 46.9732 16.4415 46.8516C16.862 46.6969 17.2823 46.8661 17.7025 47.3592C18.1528 47.8414 18.5928 48.4808 19.0224 49.2774C19.4821 50.0629 19.9133 50.9101 20.3161 51.8189C20.7078 52.6977 21.0758 53.4659 21.4202 54.1234C21.894 55.0401 22.3197 55.8723 22.6972 56.6199C23.1048 57.3565 23.4973 58.0986 23.8748 58.8462C24.2713 59.5527 24.6994 60.2988 25.1591 61.0843C25.6488 61.8588 26.2017 62.7124 26.8178 63.6449L31.3722 70.4591ZM30.3937 48.7741C30.4158 48.8341 30.3549 48.9929 30.211 49.2505C30.0671 49.5081 29.8837 49.7972 29.6608 50.118C29.4569 50.3977 29.2324 50.6678 28.9874 50.9285C28.7423 51.1892 28.5297 51.3528 28.3495 51.4191C28.2294 51.4633 28.0643 51.5241 27.8541 51.6015C27.6628 51.6378 27.4455 51.6496 27.2021 51.6369C26.9888 51.6131 26.7794 51.5538 26.574 51.4589C26.3575 51.334 26.1995 51.1364 26.1 50.8662C25.9453 50.4457 25.9517 50.0001 26.1194 49.5292C26.2759 49.0282 26.5945 48.6893 27.075 48.5125C27.165 48.4793 27.3768 48.4525 27.7103 48.432C28.0627 48.3705 28.4262 48.339 28.8008 48.3375C29.1753 48.336 29.5103 48.3661 29.8058 48.4278C30.1314 48.4785 30.3273 48.5939 30.3937 48.7741ZM38.0818 65.0736C38.1592 65.2838 38.0604 65.5248 37.7853 65.7966C37.5403 66.0573 37.3427 66.2152 37.1926 66.2705C36.8923 66.3811 36.5501 66.2854 36.1662 65.9834C35.7822 65.6815 35.4062 65.3084 35.0381 64.8642C34.67 64.42 34.343 63.9948 34.057 63.5886C33.76 63.1524 33.5483 62.8552 33.422 62.6971C33.2213 62.43 32.9685 62.1138 32.6636 61.7487C32.3587 61.3836 32.0593 61.0334 31.7655 60.6983C31.5016 60.3521 31.2694 60.0455 31.0688 59.7784C30.8681 59.5112 30.7623 59.3626 30.7512 59.3326C30.5965 58.9122 30.5278 58.4942 30.5453 58.0785C30.5928 57.6518 30.7367 57.3943 30.977 57.3058C31.2472 57.2064 31.6099 57.3115 32.065 57.6214C32.52 57.9313 33.0043 58.3668 33.5178 58.928C34.0502 59.448 34.5803 60.0543 35.1079 60.7466C35.6245 61.4089 36.1001 62.0522 36.5345 62.6766C36.9579 63.2709 37.3086 63.8068 37.5866 64.2841C37.8836 64.7204 38.0487 64.9835 38.0818 65.0736ZM45.2598 48.8256C45.293 48.9157 45.3616 49.3337 45.4657 50.0797C45.5699 50.8256 45.7071 51.6617 45.8776 52.5878C45.9754 53.1315 46.1071 53.9525 46.2728 55.0509C46.4574 56.1082 46.9256 57.6579 47.6773 59.6999C47.6994 59.76 47.7452 59.9307 47.8147 60.212C47.9031 60.4522 47.952 60.7241 47.9614 61.0275C48.0009 61.3199 47.9897 61.6138 47.928 61.9093C47.8553 62.1748 47.6687 62.3628 47.3684 62.4734C47.0982 62.5729 46.7536 62.5633 46.3349 62.4447C45.3851 62.1805 44.4623 61.8041 43.5664 61.3156C42.6704 60.827 41.8425 60.2452 41.0825 59.5702C40.3114 58.8651 39.6345 58.0914 39.0515 57.2489C38.4686 56.4064 38.0002 55.5047 37.6465 54.5437C37.6023 54.4236 37.6387 54.2909 37.7556 54.1455C37.8916 53.9591 38.0046 53.8492 38.0947 53.8161C38.5452 53.6503 38.9845 53.7784 39.4126 54.2005C39.8708 54.6115 40.3527 55.1331 40.8583 55.7654C41.3939 56.3866 41.9761 57.0418 42.6049 57.731C43.2526 58.3792 44.0269 58.8614 44.9276 59.1777C44.9735 59.0244 44.9657 58.7715 44.9041 58.4191C44.8426 58.0667 44.7826 57.7648 44.7242 57.5135C44.6768 57.2922 44.5726 56.8703 44.4116 56.2476C44.2395 55.5948 44.0564 54.912 43.8622 54.1993C43.698 53.4754 43.5149 52.7926 43.3127 52.151C43.1406 51.4982 43.0104 51.0517 42.9219 50.8115C42.8556 50.6313 42.7933 50.4156 42.7348 50.1643C42.6764 49.913 42.6536 49.6657 42.6663 49.4223C42.709 49.1678 42.7928 48.9324 42.9178 48.7159C43.0427 48.4994 43.2553 48.3359 43.5556 48.2254C43.7057 48.1701 43.9997 48.1812 44.4374 48.2588C44.8641 48.3063 45.1382 48.4952 45.2598 48.8256ZM65.8522 53.8788C65.9044 53.9278 65.9525 54.0124 65.9967 54.1325C66.0631 54.3127 66.0274 54.6327 65.8898 55.0926C65.844 55.2459 65.7206 55.5129 65.5198 55.8937C65.319 56.2745 65.0131 56.694 64.6021 57.1522C64.1911 57.6104 63.6489 58.0828 62.9755 58.5694C62.3322 59.0449 61.515 59.4651 60.524 59.8299C59.8333 60.0842 59.1024 60.1827 58.3312 60.1256C57.5489 60.0385 56.792 59.7886 56.0604 59.376C55.3177 58.9333 54.6154 58.3223 53.9535 57.543C53.2804 56.7337 52.7173 55.7134 52.2641 54.4822C51.8329 53.311 51.5796 52.1596 51.504 51.0281C51.4284 49.8965 51.4722 48.8574 51.6352 47.9108C51.8283 46.9532 52.1272 46.1441 52.5319 45.4836C52.9367 44.8231 53.4093 44.3934 53.9498 44.1944C54.4303 44.0175 54.9495 43.9458 55.5073 43.9791C56.0842 43.9713 56.6231 44.0458 57.124 44.2023C57.655 44.3479 58.1124 44.5716 58.4964 44.8736C58.8693 45.1455 59.1276 45.4766 59.2713 45.867C59.4371 46.3175 59.3982 46.8603 59.1547 47.4956C58.9412 48.1198 58.6265 48.7471 58.2107 49.3775C57.7839 49.978 57.3349 50.5183 56.8638 50.9986C56.3817 51.4489 55.9755 51.7349 55.6451 51.8565C55.465 51.9228 55.2722 51.9085 55.0667 51.8136C54.8803 51.6777 54.7429 51.4896 54.6544 51.2493C54.4996 50.8289 54.5582 50.4323 54.8301 50.0594C55.1321 49.6754 55.4751 49.3104 55.8593 48.9644C56.2323 48.5884 56.5493 48.1989 56.8101 47.796C57.101 47.382 57.1581 46.9348 56.9812 46.4543C56.9591 46.3943 56.8287 46.2718 56.5901 46.0868C56.3515 45.9018 55.9019 45.9309 55.2413 46.1741C54.941 46.2847 54.662 46.592 54.4042 47.0961C54.1354 47.5701 53.9314 48.1738 53.7921 48.907C53.6418 49.6102 53.5958 50.4115 53.654 51.3107C53.7012 52.1799 53.8961 53.08 54.2388 54.0109C54.5263 54.7917 54.9212 55.4477 55.4236 55.9788C55.9561 56.4989 56.5304 56.9012 57.1467 57.1859C57.7519 57.4405 58.399 57.5773 59.0881 57.5965C59.7771 57.6156 60.4369 57.5091 61.0676 57.277C61.518 57.1111 61.9653 56.8442 62.4095 56.4761C62.8726 56.0669 63.2908 55.6743 63.6638 55.2982C64.0559 54.8811 64.3839 54.5217 64.6479 54.2199C64.9309 53.877 65.1174 53.689 65.2075 53.6558C65.2976 53.6227 65.4042 53.6346 65.5275 53.6915C65.6808 53.7374 65.789 53.7998 65.8522 53.8788ZM72.5966 53.4932C72.6629 53.6734 72.6392 53.8867 72.5253 54.1332C72.4004 54.3497 72.2455 54.5772 72.0605 54.8158C71.8945 55.0133 71.723 55.1958 71.5459 55.3633C71.3578 55.5007 71.2488 55.575 71.2187 55.586C70.9485 55.6855 70.7162 55.7028 70.5218 55.638C70.3464 55.5321 70.186 55.4206 70.0407 55.3036C69.9143 55.1455 69.8084 54.997 69.7231 54.8579C69.6678 54.7077 69.6292 54.6026 69.607 54.5426C69.5628 54.4224 69.5376 54.2612 69.5313 54.0589C69.514 53.8266 69.5322 53.5983 69.586 53.3739C69.6398 53.1495 69.7197 52.9496 69.8256 52.7742C69.9505 52.5577 70.1181 52.4108 70.3283 52.3334C70.7187 52.1897 71.1398 52.2222 71.5917 52.4309C72.0737 52.6286 72.4087 52.9827 72.5966 53.4932ZM84.9677 45.4609C85.1556 45.9715 85.1412 46.4882 84.9246 47.0113C84.7269 47.4932 84.4076 47.9688 83.9665 48.4381C83.5444 48.8663 83.0457 49.2715 82.4704 49.6538C81.895 50.0361 81.3386 50.3773 80.8012 50.6774C80.2528 50.9475 79.7589 51.1805 79.3195 51.3764C78.899 51.5311 78.6288 51.6306 78.5087 51.6748C77.848 51.9181 77.2988 52.0009 76.8611 51.9233C76.4233 51.8458 76.105 51.5367 75.906 50.9962C75.8396 50.816 75.7994 50.6603 75.7852 50.5292C75.76 50.368 75.8524 50.2487 76.0626 50.1713C76.1527 50.1381 76.3139 50.1129 76.5463 50.0955C76.7675 50.0482 76.9382 50.0024 77.0583 49.9582C77.1784 49.914 77.5483 49.7608 78.1679 49.4986C78.8064 49.1953 79.4639 48.851 80.1404 48.4655C80.847 48.0691 81.4468 47.6607 81.94 47.2404C82.4522 46.7791 82.6419 46.3683 82.5093 46.0079C82.4871 45.9478 82.1055 45.8837 81.3643 45.8156C80.6421 45.7064 79.5272 45.503 78.0196 45.2055C76.8376 44.9586 75.9408 44.6068 75.3293 44.1499C74.7068 43.663 74.2021 42.894 73.8152 41.8429C73.572 41.1823 73.5081 40.592 73.6236 40.0721C73.7691 39.5411 74.0379 39.0671 74.43 38.65C74.852 38.2218 75.3618 37.8466 75.9593 37.5244C76.5757 37.161 77.2443 36.8467 77.965 36.5814C78.0251 36.5593 78.2163 36.523 78.5387 36.4725C78.8911 36.411 79.2752 36.3889 79.6908 36.4064C80.0954 36.3939 80.4715 36.443 80.8192 36.5537C81.1858 36.6233 81.4133 36.7783 81.5018 37.0185C81.5239 37.0786 81.497 37.1908 81.4211 37.3551C81.3752 37.5084 81.2929 37.7944 81.1743 38.2132C81.0732 38.2163 80.8914 38.2321 80.6291 38.2605C80.3967 38.2778 80.1194 38.3117 79.797 38.3622C79.4935 38.3716 79.1861 38.4165 78.8748 38.497C78.5524 38.5475 78.3011 38.6059 78.1209 38.6723C77.3401 38.9597 76.7648 39.342 76.3949 39.8192C76.0139 40.2663 75.9726 40.8953 76.2711 41.7061C76.4148 42.0965 76.6976 42.4016 77.1195 42.6213C77.5714 42.8301 78.0929 42.9962 78.6839 43.1196C79.2639 43.213 79.8794 43.3103 80.5305 43.4116C81.2006 43.4719 81.8367 43.5787 82.4387 43.7322C83.0408 43.8856 83.5639 44.1023 84.0079 44.3821C84.4709 44.6209 84.7908 44.9805 84.9677 45.4609ZM101.791 40.6488C101.843 40.6978 101.892 40.7824 101.936 40.9025C102.002 41.0827 101.967 41.4027 101.829 41.8625C101.783 42.0158 101.66 42.2829 101.459 42.6637C101.258 43.0445 100.952 43.464 100.541 43.9222C100.13 44.3804 99.5879 44.8528 98.9146 45.3394C98.2712 45.8149 97.4541 46.235 96.4631 46.5999C95.7724 46.8541 95.0415 46.9527 94.2703 46.8956C93.488 46.8085 92.7311 46.5586 91.9995 46.1459C91.2568 45.7032 90.5545 45.0922 89.8925 44.3129C89.2195 43.5036 88.6564 42.4833 88.2031 41.2521C87.772 40.0809 87.5186 38.9296 87.4431 37.798C87.3675 36.6664 87.4112 35.6274 87.5743 34.6808C87.7673 33.7231 88.0662 32.914 88.471 32.2536C88.8757 31.5931 89.3484 31.1633 89.8889 30.9644C90.3694 30.7875 90.8885 30.7157 91.4464 30.749C92.0232 30.7413 92.5621 30.8157 93.0631 30.9723C93.594 31.1178 94.0515 31.3416 94.4354 31.6435C94.8083 31.9154 95.0666 32.2466 95.2103 32.637C95.3762 33.0874 95.3373 33.6303 95.0938 34.2655C94.8803 34.8897 94.5656 35.517 94.1498 36.1475C93.7229 36.7479 93.274 37.2883 92.8029 37.7686C92.3208 38.2189 91.9145 38.5048 91.5842 38.6264C91.404 38.6927 91.2112 38.6785 91.0058 38.5836C90.8194 38.4476 90.6819 38.2595 90.5935 38.0193C90.4387 37.5989 90.4973 37.2022 90.7692 36.8293C91.0712 36.4454 91.4142 36.0804 91.7983 35.7344C92.1714 35.3584 92.4883 34.9689 92.7492 34.566C93.0401 34.152 93.0971 33.7048 92.9202 33.2243C92.8981 33.1642 92.7678 33.0417 92.5292 32.8567C92.2906 32.6718 91.841 32.7009 91.1803 32.9441C90.88 33.0546 90.601 33.362 90.3433 33.866C90.0745 34.3401 89.8705 34.9437 89.7312 35.677C89.5809 36.3802 89.5349 37.1814 89.5931 38.0807C89.6403 38.9499 89.8352 39.85 90.1779 40.7809C90.4653 41.5617 90.8603 42.2176 91.3627 42.7487C91.8951 43.2688 92.4695 43.6712 93.0857 43.9558C93.691 44.2104 94.3381 44.3473 95.0271 44.3664C95.7162 44.3856 96.376 44.2791 97.0066 44.0469C97.4571 43.8811 97.9044 43.6141 98.3486 43.246C98.8117 42.8368 99.2298 42.4442 99.6029 42.0682C99.9949 41.6511 100.323 41.2916 100.587 40.9898C100.87 40.647 101.056 40.459 101.147 40.4258C101.237 40.3926 101.343 40.4045 101.467 40.4614C101.62 40.5073 101.728 40.5698 101.791 40.6488ZM111.156 19.4527C110.931 20.0469 110.542 20.7019 109.987 21.4176C109.421 22.1034 108.844 22.7591 108.256 23.3847C107.668 24.0104 107.153 24.5579 106.712 25.0271C106.26 25.4663 106.05 25.731 106.084 25.8211C106.117 25.9112 106.276 26.1593 106.562 26.5656C106.848 26.9718 107.182 27.4626 107.565 28.0379C107.966 28.5722 108.378 29.1365 108.802 29.7308C109.225 30.3252 109.591 30.8555 109.899 31.3218C110.069 31.6 110.288 31.9627 110.555 32.41C110.822 32.8573 111.074 33.3102 111.311 33.7685C111.578 34.2159 111.813 34.6237 112.017 34.9919C112.21 35.3302 112.312 35.5143 112.323 35.5444C112.488 35.9948 112.585 36.4879 112.611 37.0237C112.638 37.5594 112.486 37.8881 112.156 38.0097C111.976 38.076 111.783 38.0617 111.578 37.9669C111.372 37.872 111.176 37.7566 110.99 37.6206C110.792 37.4546 110.63 37.2926 110.504 37.1345C110.378 36.9765 110.298 36.8524 110.265 36.7623C110.243 36.7022 110.209 36.6121 110.165 36.492C110.151 36.3608 110.116 36.2202 110.061 36.07C109.851 35.4995 109.457 34.7068 108.879 33.6921C108.697 33.3838 108.389 32.9175 107.955 32.2932C107.52 31.6688 107.08 31.0295 106.635 30.3751C106.115 29.6116 105.538 28.7841 104.902 27.8926C104.628 27.5164 104.475 27.3339 104.445 27.3449C104.235 27.4223 103.924 27.6901 103.513 28.1483C103.121 28.5654 102.682 29.0852 102.195 29.7078C101.697 30.3003 101.185 30.9489 100.661 31.6536C100.125 32.3283 99.6282 32.9714 99.1713 33.5828C98.7034 34.1643 98.309 34.6675 97.988 35.0926C97.626 35.4986 97.4 35.7182 97.3099 35.7514C96.9195 35.8951 96.5545 35.8761 96.2147 35.6942C95.875 35.5124 95.6443 35.2563 95.5227 34.926C95.4564 34.7458 95.6177 34.3966 96.0066 33.8783C96.3544 33.3411 96.8263 32.7241 97.4223 32.0273C97.9882 31.3416 98.6237 30.6132 99.3288 29.8422C100.004 29.0822 100.635 28.3894 101.223 27.7637C101.841 27.127 102.347 26.6 102.739 26.1829C103.161 25.7547 103.372 25.5407 103.372 25.5407C102.593 24.2588 101.914 23.1105 101.336 22.0957C100.843 21.2201 100.378 20.4195 99.9407 19.694C99.5331 18.9574 99.3183 18.5591 99.2962 18.4991C99.1525 18.1087 99.1225 17.7958 99.2064 17.5603C99.3091 17.2838 99.4656 17.1068 99.6759 17.0294C100.006 16.9078 100.299 17.0557 100.555 17.4729C101.483 18.973 102.313 20.3038 103.048 21.4656C103.813 22.6163 104.474 23.5323 105.031 24.2136C105.28 24.054 105.684 23.7175 106.245 23.204C106.796 22.6605 107.37 22.091 107.969 21.4953C108.568 20.8997 109.109 20.3767 109.591 19.9265C110.092 19.4351 110.388 19.1728 110.478 19.1397C110.658 19.0733 110.785 19.0947 110.86 19.2038C110.964 19.3018 111.063 19.3848 111.156 19.4527Z" fill="#DE4C13"/>
<path d="M83.0662 10.1611C82.9547 10.1961 82.8431 10.2311 75.9158 12.5247C68.9884 14.8184 55.2486 19.3696 46.2464 22.7183C37.2441 26.067 33.3958 28.0753 28.737 31.072C18.5011 37.6564 12.286 42.944 10.661 44.6497C8.11306 47.3241 7.4749 51.5436 7.44094 56.7897C7.39855 63.3396 10.9036 69.1911 13.309 72.1088C17.1447 76.7615 20.7288 77.0446 24.6753 77.8969C27.6385 78.5368 33.2716 78.26 45.8919 76.1951C54.7303 74.749 68.1797 70.7429 78.3597 67.414C88.5398 64.0851 94.9583 61.1071 99.9255 58.6006C108.325 54.3622 112.207 51.7263 114.107 50.1001C120.35 44.7572 121.842 41.8135 123.257 37.8069C124.733 33.6307 123.584 27.0945 121.356 18.8195C120.241 14.6788 115.457 13.2385 110.995 11.6257C107.321 10.2977 103.761 9.90872 100.763 9.49913C96.1775 8.87281 92.9596 9.49338 89.5196 9.72885C88.8056 9.79316 88.2414 9.8502 87.5375 9.95219C86.8336 10.0542 86.0071 10.1994 83.8521 10.6137" stroke="#DE4C13" stroke-width="3" stroke-linecap="round"/>
</svg>
