<svg width="474" height="74" viewBox="0 0 474 74" fill="none" xmlns="http://www.w3.org/2000/svg">
<path d="M3.9 72V20.8H19.6V27.8H19.9C23.7 22.3 28.6 19.3 35.7 19.3C46.9 19.3 53.5 27.3 53.5 38.7V72H37.2V42C37.2 36.6 34.5 32.9 29.2 32.9C23.8 32.9 20.2 37.4 20.2 43.7V72H3.9ZM60.9313 72V20.8H77.2313V72H60.9313ZM60.9313 13.7V0.499997H77.2313V13.7H60.9313ZM109.952 73.6C93.4523 73.6 82.7523 61.9 82.7523 46.5C82.7523 31.1 93.3523 19.4 109.552 19.4C123.452 19.4 132.352 27.5 133.852 39H118.152C117.152 34.4 114.352 31.4 109.752 31.4C102.752 31.4 99.2523 37.2 99.2523 46.5C99.2523 55.6 102.752 61.4 109.752 61.4C114.852 61.4 117.952 58.4 118.652 52.6H134.252C133.852 64.4 124.452 73.6 109.952 73.6ZM164.447 73.5C147.547 73.5 137.147 61.8 137.147 46.3C137.147 31 147.847 19.3 163.447 19.3C170.747 19.3 176.547 21.7 180.947 25.7C187.047 31.3 190.047 40.2 189.947 50.6H153.147C154.147 57.5 157.947 61.8 164.647 61.8C168.947 61.8 171.747 59.9 173.147 56.7H189.047C187.947 61.3 184.947 65.7 180.447 68.8C176.147 71.8 170.947 73.5 164.447 73.5ZM153.247 40.9H173.447C172.847 34.8 169.047 30.9 163.747 30.9C157.547 30.9 154.347 34.8 153.247 40.9Z" fill="#DE4C13"/>
<path d="M304.9 72V0.499997H321.2V27.1H321.5C325.2 22.2 329.6 19.3 336.7 19.3C347.9 19.3 354.5 27.3 354.5 38.7V72H338.2V42C338.2 36.6 335.5 32.9 330.2 32.9C324.8 32.9 321.2 37.4 321.2 43.7V72H304.9ZM379.531 73.5C367.731 73.5 361.531 65.8 361.531 54.4V20.8H377.731V51C377.731 56.6 380.231 59.7 385.431 59.7C391.031 59.7 394.431 55.5 394.431 49.4V20.8H410.731V72H395.131V65.7H394.831C391.131 70.7 386.631 73.5 379.531 73.5ZM449.872 73.6C443.072 73.6 437.572 70.8 434.372 65.5H434.172V72H418.572V0.499997H434.872V26.6H435.172C438.372 22.2 442.772 19.3 449.772 19.3C463.072 19.3 471.672 31 471.672 46.4C471.672 63.4 463.072 73.6 449.872 73.6ZM445.272 60.7C451.672 60.7 455.172 55.2 455.172 46.3C455.172 37.5 451.672 31.7 445.072 31.7C437.872 31.7 434.372 38 434.372 46.4C434.372 54.9 438.572 60.7 445.272 60.7Z" fill="#DE4C13"/>
</svg>
