<?xml version="1.0" encoding="UTF-8"?>
<svg id="Layer_1" xmlns="http://www.w3.org/2000/svg" version="1.1" viewBox="0 0 50 23">
  <!-- Generator: Adobe Illustrator 29.8.2, SVG Export Plug-In . SVG Version: 2.1.1 Build 3)  -->
  <defs>
    <style>
      .st0 {
        fill-rule: evenodd;
      }
    </style>
  </defs>
  <path class="st0" d="M49.6,16c-.2,3.7-3.3,6.5-7,6.5h-16.7c-.8,0-1.4-.6-1.4-1.4V3.1c0-.6.3-1.2.9-1.5,0,0,1.5-1.1,4.8-1.1,2,0,3.9.5,5.6,1.5,2.7,1.6,4.6,4.2,5.2,7.3.6-.2,1.2-.2,1.8-.2,3.7,0,6.7,3,6.7,6.7,0,0,0,.2,0,.2,0,0,0,0,0,0ZM22.4,4.2c.5,6.1.9,11.7,0,17.8,0,.3-.3.5-.6.5-.3,0-.5-.2-.5-.5-.8-6-.5-11.7,0-17.8,0-.3.2-.6.5-.6.1,0,.2,0,.4,0,.2.1.3.3.2.5h0ZM19,22c0,.3-.3.5-.6.5-.3,0-.4-.2-.5-.5-.6-5.2-.6-10.5,0-15.7,0-.3.3-.5.6-.5.3,0,.5.2.5.5.7,5.2.7,10.5,0,15.7ZM15.6,5.8c.6,5.6.8,10.6,0,16.2,0,.3-.3.5-.6.5-.3,0-.5-.2-.5-.5-.8-5.5-.5-10.7,0-16.2,0-.3.3-.5.5-.5s.5.2.5.5ZM12.2,22c0,.3-.3.5-.6.5-.2,0-.4-.2-.5-.5-.6-4.9-.6-9.8,0-14.7,0-.3.3-.6.6-.6s.6.3.6.6h0c.7,4.9.7,9.8,0,14.7h0ZM8.8,11c.9,3.8.5,7.2,0,11,0,.3-.3.5-.6.4-.2,0-.4-.2-.4-.4-.5-3.8-.8-7.3,0-11,0-.3.3-.5.6-.5.3,0,.5.2.5.5ZM5.4,10.4c.8,3.9.5,7.2,0,11.1,0,.6-1.1.6-1.1,0-.5-3.8-.7-7.2,0-11.1,0-.3.3-.5.6-.5.3,0,.5.2.5.5ZM2,12.3c.8,2.6.5,4.7,0,7.3,0,.3-.3.5-.6.5-.3,0-.5-.2-.5-.5-.5-2.6-.7-4.7,0-7.3,0-.3.3-.6.6-.5.3,0,.5.2.5.5h0Z"/>
</svg>