<svg preserveAspectRatio="xMidYMid meet" width="177" height="53" viewBox="0 0 177 53" fill="none" xmlns="http://www.w3.org/2000/svg">
<g id="Vector">
<path d="M176.888 27.6914C176.888 31.7408 176.888 35.6776 176.888 39.5021C177 45.9136 176.888 49.513 174.983 51.2003C173.079 53 169.717 52.8875 163.443 52.5501H163.107C158.065 52.1001 157.393 48.0507 157.393 43.7764C157.393 41.1893 157.393 38.6022 157.393 36.0151C157.393 31.5158 157.505 26.7915 156.832 22.2922C156.496 20.38 155.488 18.6928 153.919 17.6804C152.575 16.7806 151.006 16.5556 149.437 17.0055C148.653 17.0055 147.869 17.343 147.085 17.6804C146.412 17.9054 145.74 18.1303 145.068 18.2428C144.844 21.3923 145.068 24.6543 145.292 27.8039C145.404 29.8285 145.516 31.8532 145.628 33.8779C145.628 36.5775 145.628 39.1646 145.628 42.0892C145.628 46.1385 145.628 51.7627 140.138 52.5501H139.578C138.121 52.775 136.441 52.8875 134.76 52.8875C131.959 52.8875 129.27 52.4376 127.701 50.7503C126.133 48.9506 126.021 46.0261 126.021 44.0014C126.021 41.7517 126.021 39.3896 126.021 37.1399C126.021 33.5405 126.021 29.8285 126.021 26.1166C125.796 21.2799 124.452 18.3553 121.875 17.343C120.979 16.893 119.97 16.7806 118.962 16.5556C117.617 16.3306 116.385 16.1057 115.713 15.4308C114.032 13.631 115.152 10.4815 115.601 9.58166C117.393 4.18249 122.995 0.470565 129.158 0.133117C134.424 -0.0918484 138.793 2.27029 140.698 6.43215C141.482 8.34435 141.37 10.4815 141.146 12.5062C141.146 12.9561 141.146 13.4061 141.146 13.856C141.146 15.4308 141.37 16.5556 141.931 17.118C142.715 17.9054 143.723 17.9054 144.844 17.6804C144.956 15.5432 145.292 13.4061 145.852 11.3814C147.533 4.85739 153.023 0.358082 159.857 0.0206343C166.58 -0.316814 172.518 3.5076 174.871 9.80663C177 15.0933 177 20.605 177 26.0041V27.4664L176.888 27.6914Z" fill="var(--fill-0, black)"/>
<path d="M112.015 20.38C113.024 21.0549 114.144 21.8423 114.48 23.0796C115.601 26.7915 115.489 35.2277 115.489 41.3018C115.489 42.4266 115.489 43.5514 115.489 44.4513C115.489 47.6008 115.489 49.8505 114.256 50.9753C113.248 51.9876 111.679 52.2126 109.214 52.2126C108.878 52.2126 108.542 52.2126 108.094 52.2126C107.197 52.2126 106.301 52.2126 105.517 52.2126H105.293C103.948 52.2126 102.604 52.2126 101.147 52.2126C100.027 52.2126 97.8979 52.2126 97.0015 50.8628C96.5534 50.3004 96.5534 49.513 96.5534 48.7256C96.4413 43.7764 96.5534 33.428 96.5534 23.5295C96.5534 17.6804 96.5534 12.1688 96.5534 8.0069C96.5534 7.78193 96.5534 7.55697 96.5534 7.332C96.5534 5.75724 96.5534 3.95752 97.5617 2.72021C98.5701 1.4829 100.251 1.37042 101.483 1.37042C103.164 1.37042 104.957 1.37042 106.861 1.37042H108.878C108.878 1.37042 109.326 1.37042 109.55 1.37042C111.119 1.37042 113.024 1.37042 114.144 2.49525C114.256 2.60773 114.368 2.72021 114.48 2.94518C115.489 4.63242 114.144 7.21952 113.584 8.45683C113.248 9.13173 112.8 9.80662 112.463 10.4815C111.231 12.5062 109.998 14.6434 109.998 16.893C109.998 18.5803 111.007 19.4801 112.239 20.2675L112.015 20.38Z" fill="var(--fill-0, black)"/>
<path d="M1.76522 24.4294C3.22177 27.0165 5.68671 28.9287 8.82391 29.8286C9.94433 30.166 11.1768 30.2785 12.2972 30.2785C14.5381 30.2785 16.7789 29.7161 18.5716 28.5913C19.468 27.9164 19.8041 27.0165 19.692 26.1166C19.58 25.2168 18.7957 24.3169 18.0114 23.4171C17.6753 22.9671 17.2271 22.5172 16.891 22.0673C15.6585 20.38 15.2103 17.7929 16.7789 15.9932C18.4596 13.9685 21.8209 13.5186 24.0617 14.306C25.1821 14.6434 26.0785 15.3183 27.0869 15.9932C27.9832 16.5556 28.8796 17.2305 30 17.6804C31.6806 18.3553 33.5853 18.3553 35.378 18.3553C35.378 18.3553 36.0503 18.3553 36.4985 18.3553C37.6189 18.3553 38.7393 18.3553 39.7477 18.1304C40.4199 18.0179 40.9802 17.6804 41.5404 17.343C42.2126 16.7806 42.3247 16.2182 42.4367 15.6558C42.6608 14.5309 42.4367 13.1811 41.9885 11.8313C41.2042 9.58169 39.5236 7.44452 37.1707 5.41983C36.1623 4.63245 35.1539 3.95755 34.1456 3.39514C27.0869 -0.0918237 17.6753 -0.429272 10.6166 2.60776C5.68671 4.74493 2.32543 8.34438 0.756832 13.0687C-0.475638 16.8931 -0.13951 21.0549 1.65317 24.3169L1.76522 24.4294Z" fill="var(--fill-0, black)"/>
<path d="M28.8796 22.7422C32.577 21.8423 36.7226 22.7422 39.1875 24.8793C42.5488 27.5789 44.2294 32.6406 43.5572 37.7024C42.8849 42.989 39.9718 47.1509 35.154 49.8505C31.4565 51.9877 26.6387 53 21.7088 53C17.4512 53 13.1936 52.2126 9.49617 50.5254H9.38413C4.90242 48.3882 1.54114 44.3388 0.308672 39.8395C-0.363584 37.7024 -0.0274563 35.2277 2.2134 34.5528C3.33382 34.1029 4.67834 34.1029 5.79876 34.1029C5.79876 34.1029 6.58306 34.1029 7.03123 34.1029H7.14328C9.49617 34.1029 11.8491 34.1029 13.6418 35.3402C14.314 35.7902 14.9863 36.3526 15.5465 36.915C16.5549 37.8148 17.5632 38.7147 18.9078 39.1646C21.5968 40.177 24.9581 39.5021 26.7508 37.5899C28.2073 36.0151 28.4314 33.8779 27.423 31.5158C27.0869 30.7284 26.5267 30.0535 25.9665 29.3786C25.5183 28.9287 25.1822 28.4788 24.846 27.9164C24.5099 27.3539 23.7256 26.0042 24.5099 24.8793C25.0701 23.9795 25.9665 23.5295 26.7508 23.1921C27.423 22.9671 28.0953 22.7422 28.9916 22.5172L28.8796 22.7422Z" fill="var(--fill-0, black)"/>
<path d="M49.7195 24.4293C51.176 27.0164 53.641 28.9287 56.7782 29.8285C57.8986 30.166 59.1311 30.2784 60.2515 30.2784C62.4923 30.2784 64.7332 29.716 66.5259 28.5912C67.4222 27.9163 67.7584 27.0164 67.6463 26.1166C67.5343 25.2167 66.75 24.3169 65.9657 23.417C65.6295 22.9671 65.1814 22.5171 64.8452 22.0672C63.6128 20.38 63.1646 17.7929 64.7332 15.9931C66.4138 13.9685 69.7751 13.5185 72.016 14.3059C73.1364 14.6433 74.0327 15.3182 75.0411 15.9931C75.9375 16.5556 76.8338 17.2304 77.9542 17.6804C79.6349 18.3553 81.5396 18.3553 83.3323 18.3553C83.6684 18.3553 84.1166 18.3553 84.4527 18.3553C85.5731 18.3553 86.6936 18.3553 87.702 18.1303C88.3742 18.0178 89.0465 17.6804 89.4946 17.3429C90.1669 16.7805 90.391 16.2181 90.391 15.6557C90.6151 14.5309 90.391 13.1811 89.9428 11.9438C89.1585 9.69411 87.4779 7.55694 85.125 5.53225C84.1166 4.74487 83.1082 4.06997 82.0998 3.50756C75.0411 0.0205972 65.5175 -0.316851 58.4588 2.72018C53.5289 4.85735 50.1677 8.4568 48.5991 13.1811C47.3666 17.0055 47.7027 21.1673 49.4954 24.4293H49.7195Z" fill="var(--fill-0, black)"/>
<path d="M76.9459 22.7422C80.6433 21.8423 84.7889 22.7422 87.3658 24.8793C90.7271 27.5789 92.4078 32.6406 91.7355 37.7024C91.0633 42.989 88.1501 47.1509 83.3323 49.8505C79.6349 51.9877 74.8171 53 69.8872 53C65.6296 53 61.3719 52.2126 57.6745 50.5254H57.5625C53.0808 48.3882 49.7195 44.3388 48.487 39.8395C47.8148 37.7024 48.1509 35.2277 50.3918 34.5528C51.5122 34.1029 52.8567 34.1029 53.9771 34.1029C53.9771 34.1029 54.7614 34.1029 55.2096 34.1029C55.2096 34.1029 55.2096 34.1029 55.3216 34.1029C57.6745 34.1029 60.0274 34.1029 61.8201 35.3402C62.4924 35.7902 63.1646 36.3526 63.7248 36.915C64.7332 37.9273 65.7416 38.7147 67.0861 39.1646C69.7751 40.177 73.1364 39.5021 74.9291 37.5899C76.3857 36.0151 76.6097 33.8779 75.6014 31.5158C75.6014 31.5158 75.3773 31.0659 75.2652 30.8409C75.1532 30.6159 75.0411 30.391 74.8171 30.166C74.593 29.9411 74.3689 29.6036 74.1448 29.3786C74.1448 29.3786 73.8087 29.0412 73.6966 28.9287C73.3605 28.4788 72.9123 28.0288 72.6883 27.4664C72.3521 26.904 72.2401 26.3416 72.3521 25.7792C72.3521 25.3293 72.5762 24.9918 72.8003 24.6544C73.0244 24.4294 73.2485 24.2044 73.4726 23.9795C74.0328 23.642 74.593 23.3046 75.3773 22.9671C75.8254 22.8546 76.2736 22.6297 76.9459 22.5172V22.7422Z" fill="var(--fill-0, black)"/>
</g>
</svg>
